<svg width="313" height="339" viewBox="0 0 313 339" fill="none" xmlns="http://www.w3.org/2000/svg">
<path d="M293.527 337.153H18.608C8.88297 337.153 1 329.27 1 319.545V140.434C1 130.709 8.88297 122.826 18.608 122.826H293.527C303.252 122.826 311.135 130.709 311.135 140.434V319.545C311.135 329.269 303.252 337.153 293.527 337.153Z" fill="#87CAE8" stroke="#1A1A1A" stroke-width="2" stroke-miterlimit="10" stroke-linecap="round" stroke-linejoin="round"/>
<path d="M1 318.55C1 328.824 9.32897 337.152 19.603 337.152H292.533C302.807 337.152 311.135 328.824 311.135 318.55V250.495H1V318.55Z" fill="#FF8FB8" stroke="#1A1A1A" stroke-width="2" stroke-miterlimit="10" stroke-linecap="round" stroke-linejoin="round"/>
<path d="M42.6412 282.527C44.356 282.527 45.7462 281.137 45.7462 279.422C45.7462 277.707 44.356 276.317 42.6412 276.317C40.9263 276.317 39.5361 277.707 39.5361 279.422C39.5361 281.137 40.9263 282.527 42.6412 282.527Z" fill="#1A1A1A"/>
<path d="M66.9341 320.552C68.6489 320.552 70.0391 319.162 70.0391 317.447C70.0391 315.732 68.6489 314.342 66.9341 314.342C65.2192 314.342 63.8291 315.732 63.8291 317.447C63.8291 319.162 65.2192 320.552 66.9341 320.552Z" fill="#1A1A1A"/>
<path d="M114.174 282.527C115.889 282.527 117.279 281.137 117.279 279.422C117.279 277.707 115.889 276.317 114.174 276.317C112.459 276.317 111.069 277.707 111.069 279.422C111.069 281.137 112.459 282.527 114.174 282.527Z" fill="#1A1A1A"/>
<path d="M147.751 274.78C149.466 274.78 150.856 273.39 150.856 271.675C150.856 269.96 149.466 268.57 147.751 268.57C146.037 268.57 144.646 269.96 144.646 271.675C144.646 273.39 146.037 274.78 147.751 274.78Z" fill="#1A1A1A"/>
<path d="M157.475 315.571C159.19 315.571 160.58 314.181 160.58 312.466C160.58 310.751 159.19 309.361 157.475 309.361C155.76 309.361 154.37 310.751 154.37 312.466C154.37 314.181 155.76 315.571 157.475 315.571Z" fill="#1A1A1A"/>
<path d="M240.63 268.035C242.345 268.035 243.735 266.645 243.735 264.93C243.735 263.215 242.345 261.825 240.63 261.825C238.916 261.825 237.525 263.215 237.525 264.93C237.525 266.645 238.916 268.035 240.63 268.035Z" fill="#1A1A1A"/>
<path d="M246.84 298.903C248.555 298.903 249.945 297.513 249.945 295.798C249.945 294.083 248.555 292.693 246.84 292.693C245.125 292.693 243.735 294.083 243.735 295.798C243.735 297.513 245.125 298.903 246.84 298.903Z" fill="#1A1A1A"/>
<path d="M205.94 296.929C207.655 296.929 209.045 295.539 209.045 293.824C209.045 292.109 207.655 290.719 205.94 290.719C204.225 290.719 202.835 292.109 202.835 293.824C202.835 295.539 204.225 296.929 205.94 296.929Z" fill="#1A1A1A"/>
<path d="M117.279 312.937C118.994 312.937 120.384 311.547 120.384 309.832C120.384 308.117 118.994 306.727 117.279 306.727C115.564 306.727 114.174 308.117 114.174 309.832C114.174 311.547 115.564 312.937 117.279 312.937Z" fill="#1A1A1A"/>
<path d="M300.961 274.78C302.675 274.78 304.065 273.39 304.065 271.675C304.065 269.96 302.675 268.57 300.961 268.57C299.246 268.57 297.855 269.96 297.855 271.675C297.855 273.39 299.246 274.78 300.961 274.78Z" fill="#1A1A1A"/>
<path d="M91.5679 291.765C93.2828 291.765 94.6729 290.375 94.6729 288.66C94.6729 286.945 93.2828 285.555 91.5679 285.555C89.8531 285.555 88.4629 286.945 88.4629 288.66C88.4629 290.375 89.8531 291.765 91.5679 291.765Z" fill="#1A1A1A"/>
<path d="M28.4742 312.466C30.189 312.466 31.5792 311.076 31.5792 309.361C31.5792 307.646 30.189 306.256 28.4742 306.256C26.7593 306.256 25.3691 307.646 25.3691 309.361C25.3691 311.076 26.7593 312.466 28.4742 312.466Z" fill="#1A1A1A"/>
<path d="M1 141.428V198.1C10.251 202.949 20.77 205.706 31.939 205.706C68.804 205.706 98.69 175.821 98.69 138.955C98.69 133.391 97.998 127.992 96.716 122.825H19.603C9.32897 122.826 1 131.155 1 141.428Z" fill="#FFFFA1" stroke="#1A1A1A" stroke-width="2" stroke-miterlimit="10" stroke-linecap="round" stroke-linejoin="round"/>
<path d="M184.277 28.855L201.882 1H98.4404L116.045 28.855" fill="#F4F4F4"/>
<path d="M184.277 28.855L201.882 1H98.4404L116.045 28.855" stroke="#1A1A1A" stroke-width="2" stroke-miterlimit="10" stroke-linecap="round" stroke-linejoin="round"/>
<path d="M116.046 220.719L109.177 234.852V249.955H191.147V234.852L184.278 220.719" fill="#F4F4F4"/>
<path d="M116.046 220.719L109.177 234.852V249.955H191.147V234.852L184.278 220.719" stroke="#1A1A1A" stroke-width="2" stroke-miterlimit="10" stroke-linecap="round" stroke-linejoin="round"/>
<path d="M184.277 28.855H116.045V220.719H184.277V28.855Z" fill="#F4F4F4" stroke="#1A1A1A" stroke-width="2" stroke-miterlimit="10" stroke-linecap="round" stroke-linejoin="round"/>
<path d="M191.147 234.852H109.177" stroke="#1A1A1A" stroke-width="2" stroke-miterlimit="10" stroke-linecap="round" stroke-linejoin="round"/>
<path d="M107.243 14.317H193.466" stroke="#1A1A1A" stroke-width="2" stroke-miterlimit="10" stroke-linecap="round" stroke-linejoin="round"/>
<path d="M133.004 47.851V201.722" stroke="#1A1A1A" stroke-width="2" stroke-miterlimit="10" stroke-linecap="round" stroke-linejoin="round"/>
<path d="M150.161 47.851V201.722" stroke="#1A1A1A" stroke-width="2" stroke-miterlimit="10" stroke-linecap="round" stroke-linejoin="round"/>
<path d="M167.318 47.851V201.722" stroke="#1A1A1A" stroke-width="2" stroke-miterlimit="10" stroke-linecap="round" stroke-linejoin="round"/>
<path d="M234.042 161.546L240.629 150.219H201.923L208.51 161.546V239.568L205.94 244.857V250.508H236.612V244.857L234.042 239.568V161.546Z" fill="#1A1A1A"/>
</svg>
