<svg width="308" height="341" viewBox="0 0 308 341" fill="none" xmlns="http://www.w3.org/2000/svg">
<path d="M305.434 191.775C305.792 191.565 306.242 191.823 306.242 192.238V248.978C306.242 249.168 306.142 249.343 305.979 249.44L154.882 338.937C154.714 339.036 154.506 339.037 154.338 338.938L1.00098 249.284V190.68C1.00098 190.491 1.10099 190.315 1.26299 190.219L151.644 100.902L306.243 191.302" fill="#F4F4F4"/>
<path d="M305.434 191.775C305.792 191.565 306.242 191.823 306.242 192.238V248.978C306.242 249.168 306.142 249.343 305.979 249.44L154.882 338.937C154.714 339.036 154.506 339.037 154.338 338.938L1.00098 249.284V190.68C1.00098 190.491 1.10099 190.315 1.26299 190.219L151.644 100.902L306.243 191.302" stroke="#1A1A1A" stroke-width="2" stroke-miterlimit="10" stroke-linecap="round" stroke-linejoin="round"/>
<path d="M153.891 280.616L1 192.446V250.413L153.891 338.937C153.891 338.937 154.058 280.713 153.891 280.616Z" stroke="#1A1A1A" stroke-width="2" stroke-miterlimit="10" stroke-linecap="round" stroke-linejoin="round"/>
<path d="M153.891 280.616V338.937" stroke="#1A1A1A" stroke-width="2" stroke-miterlimit="10" stroke-linecap="round" stroke-linejoin="round"/>
<path d="M57.4707 224.042L104.768 251.649L153.621 220.504L107.495 194.636L57.4707 224.042Z" fill="#1A1A1A"/>
<path d="M52.835 159.588L108.26 191.144L155.819 160.824L102.241 129.401L52.835 159.588Z" fill="#1A1A1A"/>
<path d="M203.986 190.195L151.75 160.479L201.597 131.119L253.672 161.257L203.986 190.195Z" fill="#F4F4F4" stroke="#1A1A1A" stroke-width="2" stroke-miterlimit="10" stroke-linecap="round" stroke-linejoin="round"/>
<path d="M151.75 158.807L203.715 189.139L254.466 159.754L201.774 129.401L151.75 158.807Z" fill="#1A1A1A"/>
<path d="M185.148 75.48H216.228L257.122 127.084L206.774 128.717L185.148 75.48Z" fill="#F4F4F4" stroke="#1A1A1A" stroke-width="2" stroke-miterlimit="10" stroke-linecap="round" stroke-linejoin="round"/>
<path d="M139.82 74.954L162.283 2.72498L238.18 1.18698L216.543 74.429L139.82 74.954Z" fill="#F4F4F4" stroke="#1A1A1A" stroke-width="2" stroke-miterlimit="10" stroke-linecap="round" stroke-linejoin="round"/>
<path d="M107.218 48.517L127.446 125.507L206.775 128.717L185.686 56.36L107.218 48.517Z" fill="#F4F4F4" stroke="#1A1A1A" stroke-width="2" stroke-miterlimit="10" stroke-linecap="round" stroke-linejoin="round"/>
<path d="M81.8174 178.034L126.777 124.699L208.567 132.524L165.521 186.034L81.8174 178.034Z" fill="#F4F4F4" stroke="#1A1A1A" stroke-width="2" stroke-miterlimit="10" stroke-linecap="round" stroke-linejoin="round"/>
<path d="M79.0968 181.261C79.0938 182.532 58.3408 100.992 58.3408 100.992L106.475 48.517L126.777 124.699L79.0968 181.261Z" fill="#F4F4F4" stroke="#1A1A1A" stroke-width="2" stroke-miterlimit="10" stroke-linecap="round" stroke-linejoin="round"/>
<path d="M58.3408 100.991L106.69 47.462L187.847 55.233L196.971 89.829L208.568 133.8L188.949 157.073L164.536 186.034L137.596 184.262L79.2128 180.422L58.3408 100.991Z" fill="#F4F4F4" stroke="#1A1A1A" stroke-width="2" stroke-miterlimit="10" stroke-linecap="round" stroke-linejoin="round"/>
<path d="M127.446 125.507L105.533 149.901L79.0967 181.261" fill="#F4F4F4"/>
<path d="M127.446 125.507L105.533 149.901L79.0967 181.261" stroke="#1A1A1A" stroke-width="2" stroke-miterlimit="10" stroke-linecap="round" stroke-linejoin="round"/>
<path d="M208.567 130.842L185.829 129.347L127.445 125.507" fill="#F4F4F4"/>
<path d="M208.567 130.842L185.829 129.347L127.445 125.507" stroke="#1A1A1A" stroke-width="2" stroke-miterlimit="10" stroke-linecap="round" stroke-linejoin="round"/>
<path d="M107.218 48.517L116.342 83.113L127.446 125.507" fill="#F4F4F4"/>
<path d="M107.218 48.517L116.342 83.113L127.446 125.507" stroke="#1A1A1A" stroke-width="2" stroke-miterlimit="10" stroke-linecap="round" stroke-linejoin="round"/>
<path d="M216.543 74.429C216.536 74.294 239.452 -3.09402 238.502 0.0959778C238.18 1.17698 283.006 49.556 283.006 49.556L258.122 127.084L216.543 74.429Z" fill="#1A1A1A"/>
<path d="M216.543 74.429L193.17 75.196L193.174 75.431" fill="#F4F4F4"/>
<path d="M216.543 74.429L193.17 75.196L193.174 75.431" stroke="#1A1A1A" stroke-width="2" stroke-miterlimit="10" stroke-linecap="round" stroke-linejoin="round"/>
<path d="M152.935 157.241C152.935 153.38 149.805 150.249 145.943 150.249C142.082 150.249 138.951 153.379 138.951 157.241C138.951 161.103 142.081 164.233 145.943 164.233C149.804 164.233 152.935 161.102 152.935 157.241Z" fill="#1A1A1A"/>
<path d="M103.414 95.001C103.414 91.024 100.19 87.8 96.2127 87.8C92.2357 87.8 89.0117 91.024 89.0117 95.001C89.0117 98.978 92.2357 102.202 96.2127 102.202C100.19 102.202 103.414 98.978 103.414 95.001Z" fill="#1A1A1A"/>
<path d="M97.6374 134.178C97.6374 130.201 94.4134 126.977 90.4364 126.977C86.4594 126.977 83.2354 130.201 83.2354 134.178C83.2354 138.155 86.4594 141.379 90.4364 141.379C94.4144 141.378 97.6374 138.155 97.6374 134.178Z" fill="#1A1A1A"/>
<path d="M221.123 19.704C221.335 16.353 218.91 13.353 215.505 12.906C211.851 12.428 208.362 15.025 207.95 18.827C207.528 22.73 210.537 25.97 214.404 25.97C217.997 25.97 220.906 23.132 221.123 19.704Z" fill="#1A1A1A"/>
<path d="M252.233 35.972C252.428 32.477 250.201 29.347 247.076 28.882C243.722 28.383 240.518 31.092 240.141 35.058C239.754 39.129 242.516 42.508 246.066 42.508C249.364 42.508 252.034 39.548 252.233 35.972Z" fill="#F4F4F4" stroke="#1A1A1A" stroke-width="2" stroke-miterlimit="10" stroke-linecap="round" stroke-linejoin="round"/>
<path d="M255.815 61.355C256.01 57.86 253.783 54.73 250.658 54.265C247.304 53.766 244.1 56.475 243.723 60.44C243.336 64.511 246.098 67.89 249.648 67.89C252.945 67.891 255.615 64.931 255.815 61.355Z" fill="#F4F4F4" stroke="#1A1A1A" stroke-width="2" stroke-miterlimit="10" stroke-linecap="round" stroke-linejoin="round"/>
<path d="M259.179 86.157C259.374 82.662 257.147 79.532 254.022 79.067C250.668 78.568 247.464 81.277 247.087 85.242C246.7 89.313 249.462 92.692 253.012 92.692C256.309 92.694 258.98 89.733 259.179 86.157Z" fill="#F4F4F4" stroke="#1A1A1A" stroke-width="2" stroke-miterlimit="10" stroke-linecap="round" stroke-linejoin="round"/>
<path d="M209.618 55.838C209.83 52.487 207.405 49.486 204 49.041C200.346 48.562 196.856 51.159 196.445 54.962C196.023 58.865 199.032 62.105 202.899 62.105C206.491 62.104 209.4 59.266 209.618 55.838Z" fill="#1A1A1A"/>
<path d="M186.444 19.704C186.656 16.353 184.231 13.353 180.826 12.906C177.172 12.428 173.682 15.025 173.271 18.827C172.849 22.73 175.858 25.97 179.725 25.97C183.318 25.97 186.227 23.132 186.444 19.704Z" fill="#1A1A1A"/>
<path d="M141.041 69.863C140.554 66.239 137.48 63.325 134.054 63.119C130.524 62.906 127.583 65.614 127.583 69.429C127.583 73.56 130.974 77.169 135.027 77.169C138.943 77.168 141.566 73.77 141.041 69.863Z" fill="#1A1A1A"/>
<path d="M150.711 106.152C150.224 102.528 147.15 99.614 143.724 99.407C140.194 99.194 137.253 101.902 137.253 105.717C137.253 109.848 140.644 113.456 144.697 113.456C148.613 113.456 151.236 110.059 150.711 106.152Z" fill="#1A1A1A"/>
<path d="M178.518 71.281C178.031 67.657 174.958 64.743 171.531 64.537C168.001 64.324 165.06 67.032 165.06 70.847C165.06 74.978 168.451 78.586 172.504 78.586C176.421 78.585 179.043 75.187 178.518 71.281Z" fill="#1A1A1A"/>
<path d="M188.409 108.468C187.922 104.844 184.848 101.93 181.422 101.723C177.892 101.51 174.951 104.218 174.951 108.033C174.951 112.164 178.342 115.772 182.394 115.772C186.311 115.773 188.933 112.375 188.409 108.468Z" fill="#1A1A1A"/>
<path d="M205.857 250.22L153.621 220.504L203.468 191.144L255.543 221.282L205.857 250.22Z" fill="#F4F4F4" stroke="#1A1A1A" stroke-width="2" stroke-miterlimit="10" stroke-linecap="round" stroke-linejoin="round"/>
<path d="M306.856 250.766L153.965 338.936V280.969L306.856 192.445C306.856 192.446 307.023 250.67 306.856 250.766Z" fill="#F4F4F4" stroke="#1A1A1A" stroke-width="2" stroke-miterlimit="10" stroke-linecap="round" stroke-linejoin="round"/>
<path d="M153.965 220.55L205.93 250.882L256.681 221.497L203.989 191.144L153.965 220.55Z" fill="#1A1A1A"/>
</svg>
