<svg width="189" height="172" viewBox="0 0 189 172" fill="none" xmlns="http://www.w3.org/2000/svg">
<path d="M177.216 103.085L86.3608 3.67896H23.5798L6.38477 82.144L80.9368 157.314C87.0018 163.379 96.8337 163.379 102.899 157.314C104.207 156.006 105.216 154.516 105.959 152.933L110.341 157.314C116.405 163.379 126.238 163.379 132.302 157.314C134.539 155.077 135.945 152.326 136.531 149.442C142.616 154.045 151.31 153.589 156.858 148.041C162.601 142.298 162.897 133.18 157.761 127.078C163.782 131.006 171.929 130.331 177.214 125.046C183.281 118.982 183.281 109.149 177.216 103.085Z" fill="#FFFFA1" stroke="#1A1A1A" stroke-width="2" stroke-miterlimit="10" stroke-linecap="round" stroke-linejoin="round"/>
<path d="M157.761 127.079L107.074 74.875" stroke="#1A1A1A" stroke-width="2" stroke-miterlimit="10" stroke-linecap="round" stroke-linejoin="round"/>
<path d="M136.428 149.639L92.8086 104.715" stroke="#1A1A1A" stroke-width="2" stroke-miterlimit="10" stroke-linecap="round" stroke-linejoin="round"/>
<path d="M107.075 153.416L73.1377 118.463" stroke="#1A1A1A" stroke-width="2" stroke-miterlimit="10" stroke-linecap="round" stroke-linejoin="round"/>
<path d="M137.404 6.417C128.21 2.837 118.43 1 108.563 1H101.277C91.6894 1 82.3323 3.93901 74.4663 9.42001L51.6453 25.001C51.5653 25.054 51.4873 25.109 51.4083 25.163L51.0244 25.425L51.0353 25.442C44.7223 29.976 40.9234 37.791 42.2064 46.41C43.5754 55.606 50.8943 63.011 60.0703 64.509C65.7203 65.431 71.0214 64.137 75.3164 61.404L75.3243 61.416L75.6373 61.209C75.7393 61.142 75.8414 61.077 75.9414 61.008L96.6483 47.318C105.129 41.711 116.353 42.674 123.755 49.644L124.004 49.879L177.212 103.088L187.768 93.685V13.92H177.334C163.674 13.917 150.133 11.374 137.404 6.417Z" fill="#FF8FB8" stroke="#1A1A1A" stroke-width="2" stroke-miterlimit="10" stroke-linecap="round" stroke-linejoin="round"/>
<path d="M49.4619 26.699L56.5449 34.713C56.5449 34.713 76.5039 24.378 70.5519 12.093" stroke="#1A1A1A" stroke-width="2" stroke-miterlimit="10" stroke-linecap="round" stroke-linejoin="round"/>
<path d="M19.0127 117.529C28.655 117.529 36.4717 109.712 36.4717 100.07C36.4717 90.4276 28.655 82.611 19.0127 82.611C9.37036 82.611 1.55371 90.4276 1.55371 100.07C1.55371 109.712 9.37036 117.529 19.0127 117.529Z" fill="#FF8FB8" stroke="#1A1A1A" stroke-width="2" stroke-miterlimit="10" stroke-linecap="round" stroke-linejoin="round"/>
<path d="M40.3701 145.817C50.0125 145.817 57.8291 138 57.8291 128.358C57.8291 118.716 50.0125 110.899 40.3701 110.899C30.7278 110.899 22.9111 118.716 22.9111 128.358C22.9111 138 30.7278 145.817 40.3701 145.817Z" fill="#FF8FB8" stroke="#1A1A1A" stroke-width="2" stroke-miterlimit="10" stroke-linecap="round" stroke-linejoin="round"/>
<path d="M64.9062 170.02C74.5486 170.02 82.3653 162.203 82.3653 152.561C82.3653 142.919 74.5486 135.102 64.9062 135.102C55.2639 135.102 47.4473 142.919 47.4473 152.561C47.4473 162.203 55.2639 170.02 64.9062 170.02Z" fill="#FF8FB8" stroke="#1A1A1A" stroke-width="2" stroke-miterlimit="10" stroke-linecap="round" stroke-linejoin="round"/>
</svg>
