<svg width="173" height="156" viewBox="0 0 173 156" fill="none" xmlns="http://www.w3.org/2000/svg">
<path d="M170.728 49.3707L1.45312 50.7249L2.28612 154.849L171.561 153.495L170.728 49.3707Z" fill="#F4F4F4" stroke="#1A1A1A" stroke-width="2.0001" stroke-miterlimit="10.0003" stroke-linecap="round" stroke-linejoin="round"/>
<path d="M1.3916 50.699L86.5266 1L170.657 49.344" fill="#F4F4F4"/>
<path d="M1.3916 50.699L86.5266 1L170.657 49.344" stroke="#1A1A1A" stroke-width="2" stroke-miterlimit="10" stroke-linecap="round" stroke-linejoin="round"/>
<path d="M171.49 153.461L106.953 86.47" stroke="#1A1A1A" stroke-width="2" stroke-miterlimit="10" stroke-linecap="round" stroke-linejoin="round"/>
<path d="M64.9326 87.604L2.22559 154.816" stroke="#1A1A1A" stroke-width="2" stroke-miterlimit="10" stroke-linecap="round" stroke-linejoin="round"/>
<path d="M170.265 49.512L85.1301 99.21L1 50.867" fill="#1A1A1A"/>
<path d="M170.265 49.512L85.1301 99.21L1 50.867" stroke="#1A1A1A" stroke-width="2" stroke-miterlimit="10" stroke-linecap="round" stroke-linejoin="round"/>
<path d="M85.1288 99.21L144.641 64.47V28.949H30.0908V67.583L85.1288 99.21Z" fill="#87CAE8" stroke="#1A1A1A" stroke-width="2" stroke-miterlimit="10" stroke-linecap="round" stroke-linejoin="round"/>
<path d="M134.899 39.516H112.107V60.42H134.899V39.516Z" fill="#FF8FB8" stroke="#1A1A1A" stroke-width="2" stroke-miterlimit="10" stroke-linecap="round" stroke-linejoin="round"/>
<path d="M44.9668 38.9H75.7938" stroke="#1A1A1A" stroke-width="2" stroke-miterlimit="10" stroke-linecap="round" stroke-linejoin="round"/>
<path d="M44.9668 45.7151H75.7938" stroke="#1A1A1A" stroke-width="2" stroke-miterlimit="10" stroke-linecap="round" stroke-linejoin="round"/>
<path d="M44.9668 52.772H75.7938" stroke="#1A1A1A" stroke-width="2" stroke-miterlimit="10" stroke-linecap="round" stroke-linejoin="round"/>
</svg>
