<svg width="253" height="220" viewBox="0 0 253 220" fill="none" xmlns="http://www.w3.org/2000/svg">
<path d="M175.6 131.201C164.1 93.7006 140.5 60.1006 109.3 36.9006C78.1 13.7006 39.6 0.900582 1 1.00058V50.8006C64.3 48.1006 127.5 84.9006 156.5 141.201" fill="#F4F4F4"/>
<path d="M175.6 131.201C164.1 93.7006 140.5 60.1006 109.3 36.9006C78.1 13.7006 39.6 0.900582 1 1.00058V50.8006C64.3 48.1006 127.5 84.9006 156.5 141.201" stroke="#1A1A1A" stroke-width="2" stroke-miterlimit="10" stroke-linecap="round" stroke-linejoin="round"/>
<path d="M1 32.6006C1 32.6006 127.3 45.3006 160.4 135.201" stroke="#1A1A1A" stroke-width="2" stroke-miterlimit="10" stroke-linecap="round" stroke-linejoin="round"/>
<path d="M1 14.6006C1 14.6006 120.8 18.3006 167.8 127.401" stroke="#1A1A1A" stroke-width="2" stroke-miterlimit="10" stroke-linecap="round" stroke-linejoin="round"/>
<path d="M180.3 84.0006L197.1 135.501H251.2L207.4 167.301L224.1 218.801L180.3 187.001L136.5 218.801L153.2 167.301L109.4 135.501H163.6L180.3 84.0006Z" fill="#FFFFA1" stroke="#1A1A1A" stroke-width="2" stroke-miterlimit="10" stroke-linecap="round" stroke-linejoin="round"/>
<path d="M172.4 155.501C174.168 155.501 175.6 152.277 175.6 148.301C175.6 144.324 174.168 141.101 172.4 141.101C170.633 141.101 169.2 144.324 169.2 148.301C169.2 152.277 170.633 155.501 172.4 155.501Z" fill="#1A1A1A"/>
<path d="M188.2 155.501C189.967 155.501 191.4 152.277 191.4 148.301C191.4 144.324 189.967 141.101 188.2 141.101C186.433 141.101 185 144.324 185 148.301C185 152.277 186.433 155.501 188.2 155.501Z" fill="#1A1A1A"/>
<path d="M180.301 165.201C182.896 165.201 185.001 163.096 185.001 160.501C185.001 157.905 182.896 155.801 180.301 155.801C177.705 155.801 175.601 157.905 175.601 160.501C175.601 163.096 177.705 165.201 180.301 165.201Z" fill="#1A1A1A"/>
<path d="M172.3 167.701C173.3 171.201 176.5 173.801 180.3 173.801C184.1 173.801 187.3 171.201 188.3 167.701" stroke="#1A1A1A" stroke-width="2" stroke-miterlimit="10" stroke-linecap="round" stroke-linejoin="round"/>
</svg>
